<svg id="Layer_1" data-name="Layer 1" xmlns="http://www.w3.org/2000/svg" viewBox="0 0 841.89 595.28"><defs><style>.cls-1{fill:#6f8dc7;}.cls-2{fill:#403e56;}.cls-3{fill:#010101;opacity:0.1;isolation:isolate;}.cls-4{fill:#d29172;}.cls-5{fill:#302f42;}.cls-6{fill:#85a1d4;}.cls-7{fill:#9cb4de;}.cls-8{fill:#ed6969;}</style></defs><path class="cls-1" d="M557,424.33c0,38.64-23,52.14-51.31,52.14s-51.32-13.5-51.32-52.14,51.32-87.82,51.32-87.82S557,385.68,557,424.33Z"/><polygon class="cls-2" points="504.29 438.21 526.16 398.2 504.37 433.14 504.61 418.6 519.68 389.64 504.67 414.75 505.1 388.59 521.24 365.54 505.17 384.48 505.43 336.51 503.83 397.29 487.49 372.27 503.64 402.42 502.11 431.63 502.06 430.85 483.14 404.42 502 433.59 501.81 437.25 501.78 437.3 501.79 437.6 497.91 476.58 503.1 476.58 503.72 473.43 522.53 444.33 503.77 470.56 504.29 438.21"/><path class="cls-2" d="M728.67,454.64c0,22-142.94,104.73-310,104.73s-302.56-42.8-302.56-64.84,132.14,4.16,299.23,4.16S728.67,432.6,728.67,454.64Z"/><path class="cls-3" d="M728.67,454.64c0,22-142.94,104.73-310,104.73s-302.56-42.8-302.56-64.84,132.14,4.16,299.23,4.16S728.67,432.6,728.67,454.64Z"/><path class="cls-2" d="M728.67,454.64c0,22-142.94,79.79-310,79.79s-302.56-17.86-302.56-39.9,132.14-20.78,299.23-20.78S728.67,432.6,728.67,454.64Z"/><ellipse class="cls-3" cx="422.01" cy="498.72" rx="128.48" ry="9.94"/><path class="cls-4" d="M320.23,299.58s37.61.7,30.65,7.31-33.09,0-33.09,0Z"/><path class="cls-1" d="M241.86,219.2s15.19-2.71,20.47,9.55S278.45,276,278.45,276s29,19.21,34.3,18.57,14.31.66,12.65,6.42-.92,12.29-4.73,13.09-9.87-6.84-14.51-3.16-46-9.76-48.63-12.55-24.71-63.08-24.71-63.08S233.7,219,241.86,219.2Z"/><polygon class="cls-4" points="274.43 478.07 276.17 492.7 261.55 496.53 253.19 492.7 253.19 479.81 274.43 478.07"/><polygon class="cls-4" points="235.08 487.48 236.82 502.1 222.19 505.93 213.83 502.1 213.83 489.22 235.08 487.48"/><path class="cls-5" d="M275.83,318.21l6.61,24L292.19,391s2.79,11.84-2.78,26.12-15.67,60.95-13.58,63.74-23.69,4.87-23.34,2.09,3.83-41.1,3.83-41.1,4.88-33.78,7.32-38-11.15-14.63-11.15-14.63-3.48,40.05-8.71,43.54-4.52,57.46-7,58.16-20.2,3.48-22.29,0,0-61.65,0-61.65,11.84-44.23,9.4-50.5-1-33.08-1-33.08-9.06-20.55-4.18-31.35Z"/><path class="cls-4" d="M274.78,184.47s-14.63,18.11-13.93,26.12-23-14.62-23-14.62,17.07-23,17.07-27.87S274.78,184.47,274.78,184.47Z"/><circle class="cls-4" cx="274.61" cy="168.28" r="22.99"/><path class="cls-6" d="M216.68,305.18c-1,3.88-2.34,8.28-2.15,12,.12,2.4,6.49,4,15.3,5,8.16,1,18.43,1.45,27.76,1.7,9.79.26,18.55.26,22.76.26,12.54,0,2.44-8-2.43-11.84s-3.84-58.16-3.49-65.13-3.13-27.16-3.13-31-8.2-13.83-8.2-13.83-1.9,5.47-9.56-1.85a40.79,40.79,0,0,0-17.77-9.4c-7.66,2.79-20.54,33.44-21.24,38.66-.28,2.12-.05,13,.42,25.39.69,18.12,1.89,39.55,2.71,41.83C218.31,298.76,217.59,301.77,216.68,305.18Z"/><polygon class="cls-4" points="253.88 325.53 256.32 334.23 246.92 343.99 243.78 330.4 253.88 325.53"/><path class="cls-5" d="M257,488.87s7.31,8.36,12.88,2.78,5.23-9,6.27-9,16.72,13.93,16.72,13.93,26.82,6.27,12.19,10.8-56.07,1.39-56.07,0-1-19.86,2.78-19.86Z"/><path class="cls-5" d="M217.66,498.27s7.32,8.36,12.89,2.79,5.22-9.06,6.27-9.06,16.72,13.93,16.72,13.93,26.81,6.27,12.19,10.8-56.08,1.39-56.08,0-1-19.85,2.79-19.85Z"/><path class="cls-5" d="M248.8,186.63c-.74.48-1.71,1-2.45.49a111,111,0,0,1-6.17-21.36c-.47-2.57-.8-5.42.63-7.6a18.75,18.75,0,0,0,1.78-2.51c.63-1.43.22-3.08.42-4.63.44-3.23,3.5-5.49,6.57-6.58s6.42-1.44,9.35-2.87c2.78-1.37,5-3.63,7.59-5.35s5.89-2.89,8.77-1.73c2.54,1,4.12,3.62,6.53,4.94a18.73,18.73,0,0,0,5.34,1.53,34.16,34.16,0,0,1,13.9,6.46,10.25,10.25,0,0,1,2.53,2.6c3.08,5.08-2.44,12,0,17.41l-5.27-4.16a18.44,18.44,0,0,0-4.71-3,6.2,6.2,0,0,0-5.39.24c-2.23,1.38-2.83,4.27-3.61,6.77s-2.49,5.28-5.11,5.21c-3.56-.09-4.81-5.05-8-6.63A6.17,6.17,0,0,0,265,167a13.26,13.26,0,0,0-3.62,5.85,16,16,0,0,1-1.82,4.09c-.95,1.3-2.18,1.41-3.2,2.39C253.72,181.88,252.09,184.5,248.8,186.63Z"/><path class="cls-3" d="M216.68,305.18a162.08,162.08,0,0,0,13.15,17c8.16,1,18.43,1.45,27.76,1.7a22.1,22.1,0,0,0-6.14-5.66c-4.53-2.78-15.33-35.87-15.33-35.87s13.24-34.13,16.72-47-10.1-20.2-10.1-20.2c-6.27-5.22-17.07,7-17.07,7s-5.51,16.62-10.72,33c.69,18.12,1.89,39.55,2.71,41.83C218.31,298.76,217.59,301.77,216.68,305.18Z"/><path class="cls-7" d="M241.69,212.34s13.59,7.31,10.1,20.2-16.71,47-16.71,47,10.79,33.09,15.32,35.88,10.8,9.4,5.92,12.88-8.36,9.06-11.84,7.32-3.48-11.5-9.4-11.5-30-36.22-30.3-40.05,19.85-64.78,19.85-64.78S235.43,207.11,241.69,212.34Z"/><path class="cls-8" d="M524.13,307.53l-3.92-3.92a12.18,12.18,0,0,0-17.23,0l-76,76-76-76a12.19,12.19,0,0,0-17.24,0l-3.92,3.92a12.18,12.18,0,0,0,0,17.23h0l76,76-76,76a12.18,12.18,0,0,0,0,17.23l3.92,3.92a12.19,12.19,0,0,0,17.24,0l76-76,76,76a12.18,12.18,0,0,0,17.23,0l3.92-3.92a12.18,12.18,0,0,0,0-17.23l-76-76,76-76A12.18,12.18,0,0,0,524.13,307.53Z"/><path class="cls-3" d="M327.12,480.89l73.74-73.74-.71-.71-70.32,70.32A12.24,12.24,0,0,0,327.12,480.89Z"/><path class="cls-3" d="M328.78,310A12.19,12.19,0,0,1,346,310h0l76,76,76-76a12.19,12.19,0,0,1,17.24,0h0l3.91,3.92a12.19,12.19,0,0,1,2.72,13.1l2.25-2.26a12.18,12.18,0,0,0,0-17.23h0l-3.92-3.92a12.18,12.18,0,0,0-17.23,0l-76,76-76-76a12.19,12.19,0,0,0-17.24,0l-3.92,3.92a12.24,12.24,0,0,0-2.71,4.13Z"/><path class="cls-3" d="M448.84,401.47l-5.67,5.68,76,76a12.19,12.19,0,0,1,2.72,13.1l2.25-2.26a12.18,12.18,0,0,0,0-17.23h0Z"/><path class="cls-7" d="M204.56,452.14c0,32.1-19.08,43.31-42.62,43.31s-42.62-11.21-42.62-43.31,42.62-72.93,42.62-72.93S204.56,420.05,204.56,452.14Z"/><polygon class="cls-2" points="160.83 463.68 178.99 430.44 160.9 459.46 161.09 447.38 173.61 423.34 161.15 444.19 161.5 422.46 174.9 403.32 161.55 419.05 161.77 379.21 160.45 429.69 146.87 408.91 160.28 433.95 159.01 458.21 158.98 457.56 143.26 435.61 158.93 459.84 158.77 462.87 158.74 462.92 158.75 463.17 155.53 495.54 159.84 495.54 160.35 492.93 175.98 468.76 160.39 490.54 160.83 463.68"/></svg>