<svg id="Layer_1" data-name="Layer 1" xmlns="http://www.w3.org/2000/svg" viewBox="0 0 764.37 386.49"><defs><style>.cls-1{fill:#f2f2f2;}.cls-2{fill:#302f42;}.cls-3{fill:#010101;opacity:0.1;}.cls-11,.cls-12,.cls-3{isolation:isolate;}.cls-4{fill:#403e56;}.cls-5{fill:#f7bebe;}.cls-12,.cls-6{fill:#6f8dc7;}.cls-7{fill:#58b994;}.cls-8{fill:none;stroke:#403e56;stroke-miterlimit:10;}.cls-11,.cls-9{fill:#ed6969;}.cls-10{fill:#fff;}.cls-11{font-size:197.16px;font-family:Poppins-Bold, Poppins;font-weight:700;}.cls-12{font-size:65px;font-family:Poppins-SemiBold, Poppins;font-weight:600;}</style></defs><ellipse class="cls-1" cx="384.61" cy="361.65" rx="375.15" ry="24.84"/><circle class="cls-2" cx="101.14" cy="223.59" r="9.18"/><ellipse class="cls-2" cx="123.52" cy="243.96" rx="25.73" ry="33.34"/><path class="cls-3" d="M162.49,402.37c-12.89,0-23.57-12.28-25.44-28.31a39.81,39.81,0,0,0-.29,5c0,18.41,11.52,33.34,25.73,33.34s25.74-14.93,25.74-33.34a41.8,41.8,0,0,0-.3-5C186.06,390.09,175.38,402.37,162.49,402.37Z" transform="translate(-38.97 -135.14)"/><path class="cls-4" d="M214.86,476.74c-.55,2.27-2.94,4.09-5.58,5.36-5.55,2.68-12.39,3.47-19,3.74a33.15,33.15,0,0,1-5.08-.09,14.66,14.66,0,0,1-8.71-4,1.19,1.19,0,0,1-.35-1.65h0a1.22,1.22,0,0,1,.38-.37c3.53-3.88,9.43-6.26,15.37-8,4.51-1.3,12.36-4.66,17.28-4.21C213.9,468,215.56,473.88,214.86,476.74Z" transform="translate(-38.97 -135.14)"/><path class="cls-3" d="M214.86,476.74c-.55,2.27-2.94,4.09-5.58,5.36-5.55,2.68-12.39,3.47-19,3.74a33.15,33.15,0,0,1-5.08-.09,14.66,14.66,0,0,1-8.71-4,1.19,1.19,0,0,1-.35-1.65h0a1.22,1.22,0,0,1,.38-.37c3.53-3.88,9.43-6.26,15.37-8,4.51-1.3,12.36-4.66,17.28-4.21C213.9,468,215.56,473.88,214.86,476.74Z" transform="translate(-38.97 -135.14)"/><path class="cls-5" d="M178.64,414.1a16.74,16.74,0,0,1-1.23,5.71,7.11,7.11,0,0,1-4.1,4,8.72,8.72,0,0,1-4,.13,7.72,7.72,0,0,1-3.26-1.11,7,7,0,0,1-2.59-4.79c-.28-1.85-.15-3.74-.33-5.6a30.64,30.64,0,0,0-.85-4.45c-.13-.48-.25-1-.37-1.45s-.23-1-.34-1.45-.19-.91-.27-1.37-.12-.77-.17-1.17a12.82,12.82,0,0,0-.57-3.42,9.92,9.92,0,0,0-1.2-2c-.2-.29-.4-.58-.58-.88a4.15,4.15,0,0,1-.69-2.67,2.13,2.13,0,0,1,.1-.42l.06-.16a1.29,1.29,0,0,0,.88-.82,2.46,2.46,0,0,0-.11-1.26,8,8,0,0,0-.68-1.63c-.19-.34-.83-1-.83-1.34,0-.79,1.52-1.42,2.14-1.73a12.07,12.07,0,0,1,6.11-1.24,4.48,4.48,0,0,1,3.57,1.65c.67,1,.59,2.34.87,3.53a.79.79,0,0,0,.74.72,3.35,3.35,0,0,0,1,0h.26a3.49,3.49,0,0,0,1.45-.63l.84-.18h0c1.12,3.53,1.27,7.33,2.19,10.93a28.56,28.56,0,0,1,1.19,5.41v2a3.57,3.57,0,0,0,.09.8,11,11,0,0,0,.37,1.24h0a1.9,1.9,0,0,0,.11.39c0,.13.05.19.07.29h0A10.81,10.81,0,0,1,178.64,414.1Z" transform="translate(-38.97 -135.14)"/><circle class="cls-5" cx="123.97" cy="242.61" r="13.2"/><path class="cls-5" d="M161.62,404.77h0a.54.54,0,0,1-.05.28,1.82,1.82,0,0,0-.08.46c-.28,1.42-.62,2.84-1,4.24-1.08,3.88-2.52,7.7-3.94,11.47q-5.76,15.13-11.5,30.28c-1,2.54-1.93,5.08-3,7.58-.37.83-.75,1.66-1.12,2.51a34.86,34.86,0,0,0-3.07,9.38,19.49,19.49,0,0,0-.14,6.42,6.58,6.58,0,0,0,3.72,5c1,.38,2.38.9,2.12,1.91a1.58,1.58,0,0,1-1.36.93A5.2,5.2,0,0,1,138,484c-1.07-1-1.89-2.43-3.32-2.59a5.46,5.46,0,0,0-2.8.9c-3.69,1.68-8.06,1.12-11.94-.07a5,5,0,0,1,3.53-3.54,27.14,27.14,0,0,1,4.77-.13,2,2,0,0,0,2.24-1.72,55.45,55.45,0,0,0,2.28-9.35c.52-3.31.73-6.68,1.47-10,.57-2.56,1.45-5,2.21-7.55q2.19-7.75,3.6-15.7a55.44,55.44,0,0,0,1-6.66c.13-1.86.07-3.73.25-5.58a43,43,0,0,1,1.5-7.11c.68-2.53,1.37-5.06,2.05-7.6,1-3.75,2.1-7.64,4.67-10.55a9.89,9.89,0,0,1,7.13-3.41,7.77,7.77,0,0,1,1.52.16l.24.07a5.7,5.7,0,0,1,1.55.64c.79-.51,1.2-.33,1.72.45a5,5,0,0,1,.63,2.7A37.5,37.5,0,0,1,161.62,404.77Z" transform="translate(-38.97 -135.14)"/><path class="cls-6" d="M162.49,407.74h0l-.18.18-1.8,1.8-.89-3.7-3-12.7a7.77,7.77,0,0,1,1.52.16,2.13,2.13,0,0,1,.1-.42l.14.49,1,3.48,1.94,6.62.32,1.09h0Z" transform="translate(-38.97 -135.14)"/><path class="cls-2" d="M173.91,367.23a9,9,0,0,1-2.63,6.33,11.4,11.4,0,0,1-1,.84,9,9,0,0,1-5.36,1.79H154.21a9,9,0,0,1,0-17.91H165A9,9,0,0,1,173.91,367.23Z" transform="translate(-38.97 -135.14)"/><circle class="cls-2" cx="145" cy="223.59" r="9.18"/><path class="cls-3" d="M183.75,349.56h-.34a9.17,9.17,0,0,1,0,18.33h.34a9.18,9.18,0,0,0,0-18.35Z" transform="translate(-38.97 -135.14)"/><path class="cls-3" d="M140.11,349.56h.34a9.17,9.17,0,0,0,0,18.33h-.34a9.18,9.18,0,0,1,0-18.35Z" transform="translate(-38.97 -135.14)"/><path class="cls-3" d="M170.31,374.4a9,9,0,0,1-5.36,1.79H154.21a9,9,0,0,1-5.36-1.79Z" transform="translate(-38.97 -135.14)"/><path class="cls-5" d="M239.64,440.88s2.31,6.66,4.43,4.89l-1.69-8.71Z" transform="translate(-38.97 -135.14)"/><path class="cls-7" d="M755.14,404.51a14.81,14.81,0,1,0,2-28.39l.37,7.62-3.6-6.53a14.74,14.74,0,0,0-7.6,8.34,14.43,14.43,0,0,0-.85,4A14.81,14.81,0,0,0,755.14,404.51Z" transform="translate(-38.97 -135.14)"/><path class="cls-8" d="M773,492.87c-1.28-6.48,4.24-12.23,9.68-16s11.81-7.4,13.67-13.74c2.67-9.1-5.28-17.44-11.47-24.64A88.35,88.35,0,0,1,773.12,421a24.38,24.38,0,0,1-2.81-7.94c-.48-4,.81-8,2.12-11.9q6.52-19.24,14-38.16" transform="translate(-38.97 -135.14)"/><path class="cls-9" d="M755.75,402.54a14.8,14.8,0,1,0,2-28.38l.37,7.62-3.6-6.53a14.75,14.75,0,0,0-7.6,8.33,14.43,14.43,0,0,0-.85,4A14.78,14.78,0,0,0,755.75,402.54Z" transform="translate(-38.97 -135.14)"/><path class="cls-6" d="M219.81,476.7H406.62A10.31,10.31,0,0,0,417,466.52a9.77,9.77,0,0,0-1.25-4.73L322.42,294.11A10.63,10.63,0,0,0,308.26,290a10.39,10.39,0,0,0-4.25,4.11L210.6,461.79a10,10,0,0,0,4,13.56l.26.14A10.93,10.93,0,0,0,219.81,476.7Zm95.6-58.78H311a6.85,6.85,0,0,1-6.85-6.85h0V351.3a6.85,6.85,0,0,1,6.85-6.85h4.43a6.84,6.84,0,0,1,6.84,6.84h0v59.77a6.84,6.84,0,0,1-6.83,6.85Zm8.68,20a10.9,10.9,0,1,1-11.26-10.52h.36a10.74,10.74,0,0,1,10.9,10.55Z" transform="translate(-38.97 -135.14)"/><path class="cls-9" d="M771.17,360.44a14.79,14.79,0,0,1,10.65-9.39L783,358.3l2.26-7.61a14.8,14.8,0,1,1-15,14.6v0A15,15,0,0,1,771.17,360.44Z" transform="translate(-38.97 -135.14)"/><path class="cls-8" d="M772,357.82a14.78,14.78,0,0,1,10.65-9.38l1.22,7.24,2.26-7.61a14.8,14.8,0,1,1-15,14.6v0A15,15,0,0,1,772,357.82Z" transform="translate(-38.97 -135.14)"/><path class="cls-9" d="M782.26,438.68a14.8,14.8,0,0,0,13.1-26.33l-1.74,5.85-1.23-7.33h0a14.8,14.8,0,0,0-10.1,27.83h0Z" transform="translate(-38.97 -135.14)"/><path class="cls-8" d="M783,436a14.8,14.8,0,0,0,13.1-26.33l-1.74,5.85-1.23-7.33h0a14.8,14.8,0,1,0-10.49,27.68Z" transform="translate(-38.97 -135.14)"/><path class="cls-9" d="M766.85,463.26a14.79,14.79,0,1,0,2.85-11.59l6.59,9.93-9-5.27A14.79,14.79,0,0,0,766.85,463.26Z" transform="translate(-38.97 -135.14)"/><path class="cls-8" d="M767.46,461.3a14.79,14.79,0,1,0,2.85-11.59l6.59,9.93-9-5.27A14.79,14.79,0,0,0,767.46,461.3Z" transform="translate(-38.97 -135.14)"/><path class="cls-9" d="M45.49,440.56a9.72,9.72,0,1,0,1.29-18.65l.24,5-2.36-4.29a9.74,9.74,0,0,0-5,5.47,9.93,9.93,0,0,0-.55,2.64A9.69,9.69,0,0,0,45.49,440.56Z" transform="translate(-38.97 -135.14)"/><path class="cls-8" d="M57.2,498.62c-.83-4.26,2.79-8,6.37-10.49s7.76-4.86,9-9c1.75-6-3.47-11.47-7.54-16.19a58.44,58.44,0,0,1-7.72-11.48,15.61,15.61,0,0,1-1.85-5.21c-.32-2.65.53-5.29,1.39-7.82q4.29-12.65,9.17-25.07" transform="translate(-38.97 -135.14)"/><path class="cls-8" d="M45.89,439.27a9.72,9.72,0,1,0,1.29-18.65l.25,5-2.37-4.29a9.66,9.66,0,0,0-5,5.48,9.5,9.5,0,0,0-.56,2.63A9.69,9.69,0,0,0,45.89,439.27Z" transform="translate(-38.97 -135.14)"/><path class="cls-9" d="M56,411.61a9.72,9.72,0,0,1,7-6.17l.81,4.76,1.48-5a9.73,9.73,0,1,1-9.87,9.59h0A9.82,9.82,0,0,1,56,411.61Z" transform="translate(-38.97 -135.14)"/><path class="cls-8" d="M56.55,409.89a9.74,9.74,0,0,1,7-6.17l.8,4.76,1.48-5A9.72,9.72,0,1,1,56,413.09v0A9.52,9.52,0,0,1,56.55,409.89Z" transform="translate(-38.97 -135.14)"/><path class="cls-9" d="M63.3,463a9.72,9.72,0,0,0,8.61-17.3l-1.14,3.84-.77-4.8h0A9.73,9.73,0,1,0,63.27,463h0Z" transform="translate(-38.97 -135.14)"/><path class="cls-8" d="M63.76,461.28A9.72,9.72,0,0,0,72.37,444l-1.14,3.84L70.42,443h0a9.73,9.73,0,0,0-6.64,18.29Z" transform="translate(-38.97 -135.14)"/><path class="cls-9" d="M53.18,479.17a9.7,9.7,0,1,0,1.87-7.62l4.33,6.52-5.92-3.46A9.78,9.78,0,0,0,53.18,479.17Z" transform="translate(-38.97 -135.14)"/><path class="cls-8" d="M53.58,477.88a9.7,9.7,0,1,0,1.87-7.62l4.33,6.52-5.92-3.46A9.78,9.78,0,0,0,53.58,477.88Z" transform="translate(-38.97 -135.14)"/><path class="cls-10" d="M423.79,368.78a3.48,3.48,0,0,1-.94,2.41,3,3,0,0,1-2.26,1h-7.11a3.31,3.31,0,0,1-3.2-3.41,3.48,3.48,0,0,1,.58-1.95,34.63,34.63,0,0,1,12.67.58A3.79,3.79,0,0,1,423.79,368.78Z" transform="translate(-38.97 -135.14)"/><text class="cls-11" transform="translate(326.31 232.77)">403</text><path class="cls-4" d="M235.5,480.16a4.8,4.8,0,0,0,.43,2.24c.83,1.51,2.81,1.85,4.53,2a133.76,133.76,0,0,0,30.06-.92,3.3,3.3,0,0,0,1.53-.47c1.41-1,.54-3.41-1-4.18s-3.37-.59-5.07-.93a15.82,15.82,0,0,1-4.75-2.06q-5.16-3-10.16-6.18c-2-1.27-4.34-2.63-6.58-1.88C238.42,469.82,235.46,473.62,235.5,480.16Z" transform="translate(-38.97 -135.14)"/><text class="cls-12" transform="translate(360.86 55.28)">Forbidden</text><path class="cls-5" d="M246.76,449.69a21.64,21.64,0,0,0-3.72-10c.34,2,.68,4.07,1,6.11a2.3,2.3,0,0,1-2.4-.74,7.1,7.1,0,0,1-1.25-2.33,48.05,48.05,0,0,0-5.84-10.48c-8.41-.7-16.71-4.18-24.11-8.24s-14.31-8.93-21.6-13.16a31.1,31.1,0,0,0-4-2c-2.28-.91-4.84-1.39-7-2.46l-.43-.23a8.55,8.55,0,0,1-1.38-.93,6.47,6.47,0,0,1-.67-.61,14.33,14.33,0,0,1-2.53-4.23c-1.16-2.57-1.57-5.67-2.73-8.24a7.62,7.62,0,0,1,1.78-1.25h0l.28-.14a9.09,9.09,0,0,1,1.43-.53l.84-.18h0a8.11,8.11,0,0,1,3.91.31,18,18,0,0,1,4.93,3,79.6,79.6,0,0,1,7.22,5.73c1.28,1.22,2.44,2.56,3.81,3.67a30,30,0,0,0,3.6,2.39l22.27,13.26c2.51,1.5,5,3,7.48,4.58,3.74,2.41,7.34,5,10.93,7.62L245,435.2a7.15,7.15,0,0,1,1.8,1.67,6.06,6.06,0,0,1,.8,2.44A22.28,22.28,0,0,1,246.76,449.69Z" transform="translate(-38.97 -135.14)"/><path class="cls-6" d="M181.92,424c-.89,4-4.93,6.41-7,9.92-2.62,4.36-1.55,9.42-.57,14.41L169,453c-1,.85-2,1.71-3.06,2.46a39.94,39.94,0,0,1-4.87,2.81q-2.4,1.22-4.78,2.45a22.75,22.75,0,0,1-4.68,2A18.05,18.05,0,0,1,142,462a4.38,4.38,0,0,1-1-.43,2,2,0,0,1-.5-.45,2.78,2.78,0,0,1-.31-1.81A84.12,84.12,0,0,1,143,443.9a45.32,45.32,0,0,1,6.59-16.22,49.35,49.35,0,0,1,5.64-8.18,13.14,13.14,0,0,0,2.61-3.37c.8-1.82.49-3.9.65-5.87a12.44,12.44,0,0,1,1.16-4.27h0a11.9,11.9,0,0,1,1.24-2.05l.66,1.51.42,1c.18.43.37.85.55,1.27l1.56,3.64a15.32,15.32,0,0,0,2.37,4.23,4.62,4.62,0,0,0,7.91-.61A15.3,15.3,0,0,0,176,410.7a13.75,13.75,0,0,0,.18-5.57c-.54-3.56-2.06-7.2-3.16-10.51a10.54,10.54,0,0,1-.77-3.46v-.5a9.09,9.09,0,0,1,1.43-.53l.84-.18,2.91,15.74a2.41,2.41,0,0,0,.07.37c.14.75.28,1.5.44,2.25s.29,1.36.46,2h0c0,.22.11.45.18.68h0c.17.62.36,1.23.58,1.84C180.47,416.58,182.76,420.25,181.92,424Z" transform="translate(-38.97 -135.14)"/><path class="cls-4" d="M144.31,459.77a14.07,14.07,0,0,0-.85,10.72,18.75,18.75,0,0,0,6.28,8.89c7.18,5.75,17.06,6.54,26.26,6.46a202.57,202.57,0,0,0,24.11-1.65,29.17,29.17,0,0,0,7.82-1.81,12,12,0,0,0,6.71-6.78,8.26,8.26,0,0,0-2.22-8.94c-2.24-1.81-5.31-2.06-8.18-2.24l-16.42-1c1.62-1.65,3.78-2.57,5.76-3.77,2.62-1.58,4.36-4.24,6.26-6.64a93.32,93.32,0,0,1,9.56-9.82c.54,3.06,2.48,5.58,4.76,7.7s4.91,3.81,7.28,5.83c5.75,4.87,9.89,11.5,15.93,16a31,31,0,0,0,11.41-5.7l-2.35-4.25a2.81,2.81,0,0,0-.88-1.11c-.67-.41-1.52-.2-2.3-.31-2.06-.31-3-2.69-3.77-4.61-2.22-5.28-6.48-9.38-10.11-13.8a70.14,70.14,0,0,1-7.11-10.47,36,36,0,0,0-4-6.41,9,9,0,0,0-6.5-3.4c-2.23,0-4.29,1.13-6.2,2.27a162.62,162.62,0,0,0-16.81,11.45c-2.8,2.17-5.59,4.47-8.88,5.81-1.38.56-2.84.94-4.17,1.63-2.33,1.2-4.1,3.22-6,5A39.79,39.79,0,0,1,144.31,459.77Z" transform="translate(-38.97 -135.14)"/></svg>