<svg id="Layer_1" data-name="Layer 1" xmlns="http://www.w3.org/2000/svg" viewBox="0 0 758.96 486.22"><defs><style>.cls-1{fill:#302f42;}.cls-2{fill:#fff;}.cls-3{fill:#403e56;}.cls-4{fill:#6f8dc7;}.cls-5{fill:#bbceea;}.cls-6{fill:#9cb4de;}.cls-7{fill:#cdcccc;}.cls-8{fill:#f2f2f2;}.cls-9{isolation:isolate;font-size:183.54px;fill:#ed6969;font-family:Poppins-Bold, Poppins;font-weight:700;}</style></defs><circle class="cls-1" cx="619.21" cy="404.85" r="62.32"/><circle class="cls-2" cx="614.26" cy="389.79" r="21.3"/><circle class="cls-3" cx="605.63" cy="384.29" r="7.1"/><path class="cls-4" d="M652.49,415.2c-25.49-.05-43.38-4.6-43.34-27.69s20.74-41.78,46.23-41.73,46.11,18.81,46.07,41.9S678,415.24,652.49,415.2Z" transform="translate(-35.74 -52.48)"/><path class="cls-5" d="M752.63,467.75c-7.31,25.36-28.65,43.11-50.92,58.19q-4.66,3.16-9.33,6.18h-.07l-.44.29L690,533.68l.35.16h0l-.34-.14c-12.94-5.21-26.1-10.82-36-20.59-10.29-10.15-16.3-26.07-10.73-39.4a25.25,25.25,0,0,1,2.76-4.95c.45-.64.94-1.26,1.44-1.87a27.3,27.3,0,0,1,46.87,8.29c1.63-15.23-10.93-28-23-37.4S645.41,418.15,643.08,403c-1.31-8.42,1.62-16.59,7-23.15.16-.2.33-.39.5-.59a39.85,39.85,0,0,1,25.59-13.73c18.55-1.93,36.56,7.89,50,20.78C747.84,407.05,760.94,438.91,752.63,467.75Z" transform="translate(-35.74 -52.48)"/><path class="cls-2" d="M717.78,434.57a67.66,67.66,0,0,1,8.11,17.89,58.78,58.78,0,0,1,2,17.36A75.27,75.27,0,0,1,718,504.09a108,108,0,0,1-16.35,21.85q-4.66,3.16-9.33,6.18h-.07l-.44.29L690,533.68s.7.34.32.19l-.34-.14a59.91,59.91,0,0,0-19.17-51.59A60.63,60.63,0,0,0,646,468.79c.45-.64.94-1.26,1.44-1.87a63.86,63.86,0,0,1,10.34,3.91,61.41,61.41,0,0,1,27.76,26.77,62.63,62.63,0,0,1,6.78,34.4c.54-.48,1.07-1,1.58-1.46,9.83-9.17,18.57-19.69,24.47-31.83a70,70,0,0,0,7.34-33.15c-.48-12.52-5.47-24.12-12.69-34.21a146,146,0,0,0-27.8-28.65,166.76,166.76,0,0,0-34.58-21.35,1.2,1.2,0,0,1-.6-1.54,1,1,0,0,1,.5-.59.87.87,0,0,1,.77,0c1.53.71,3,1.42,4.54,2.16a168.48,168.48,0,0,1,34.82,23C700.92,413.16,710.57,423.14,717.78,434.57Z" transform="translate(-35.74 -52.48)"/><ellipse class="cls-1" cx="106.75" cy="479.64" rx="15.78" ry="5.92"/><ellipse class="cls-1" cx="144.62" cy="478.85" rx="15.78" ry="5.92"/><ellipse class="cls-1" cx="226.81" cy="430.77" rx="31.27" ry="9.81" transform="translate(-220.22 117.82) rotate(-29.89)"/><circle class="cls-1" cx="119.38" cy="396.43" r="62.32"/><rect class="cls-1" x="90.98" y="445.33" width="18.93" height="33.92"/><rect class="cls-1" x="128.84" y="445.33" width="18.93" height="33.92"/><circle class="cls-2" cx="120.95" cy="380.64" r="21.3"/><circle class="cls-3" cx="120.95" cy="380.64" r="7.1"/><path class="cls-6" d="M94.66,390.94c-5-22.54,11.06-45.31,35.93-50.87s49.12,8.22,54.15,30.75-11.45,30.85-36.33,36.41S99.69,413.47,94.66,390.94Z" transform="translate(-35.74 -52.48)"/><ellipse class="cls-1" cx="84.93" cy="419.95" rx="9.78" ry="31.16" transform="translate(-366.64 264.28) rotate(-64.63)"/><path class="cls-2" d="M124.5,471.38c0,6.1,15.71,18.14,33.14,18.14s33.76-17.17,33.76-23.27-16.34,1.18-33.76,1.18S124.5,465.28,124.5,471.38Z" transform="translate(-35.74 -52.48)"/><ellipse class="cls-1" cx="336.69" cy="479.64" rx="15.78" ry="5.92"/><ellipse class="cls-1" cx="298.82" cy="478.85" rx="15.78" ry="5.92"/><ellipse class="cls-1" cx="289.18" cy="429.3" rx="9.78" ry="31.16" transform="translate(-262.91 412.96) rotate(-60.04)"/><circle class="cls-1" cx="324.06" cy="396.41" r="62.32"/><rect class="cls-1" x="333.53" y="445.33" width="18.93" height="33.92"/><rect class="cls-1" x="295.66" y="445.33" width="18.93" height="33.92"/><circle class="cls-2" cx="309.46" cy="380.64" r="21.3"/><ellipse class="cls-3" cx="335.07" cy="430.26" rx="7.12" ry="7.07" transform="translate(-241.81 310.19) rotate(-44.97)"/><path class="cls-4" d="M366.51,407.23c-24.88-5.56-41.37-13.87-36.33-36.41s29.27-36.3,54.15-30.75,41,28.33,35.93,50.87S391.38,412.78,366.51,407.23Z" transform="translate(-35.74 -52.48)"/><ellipse class="cls-1" cx="416.95" cy="466.32" rx="9.78" ry="31.16" transform="translate(-141.45 70.14) rotate(-14.87)"/><path class="cls-2" d="M345.68,467.43c-11.44,0-22.16-7.28-22.16-1.18s10.72,23.27,22.16,23.27,21.76-12,21.76-18.14S357.13,467.43,345.68,467.43Z" transform="translate(-35.74 -52.48)"/><path class="cls-6" d="M265.14,345.56h-5.53a18.72,18.72,0,0,1-18.7-18.7v-4.64c0-11.51,2.18-21.15,6.48-28.64a150.53,150.53,0,0,1,18.15-24.39,108.35,108.35,0,0,0,12.34-14.87,25.1,25.1,0,0,0,3.9-13.84c0-11.55-7.52-17.16-23-17.16a93.34,93.34,0,0,0-25.34,3.81,21.36,21.36,0,0,1-27.2-20.52V197.2A20.93,20.93,0,0,1,218.59,178a113,113,0,0,1,46-9.06c16.56,0,31.51,2.79,44.44,8.27s23.17,13.25,30.4,23a55.47,55.47,0,0,1,10.91,33.64c0,13-3.55,24.31-10.55,33.64s-16.84,19.34-29.48,30A209.4,209.4,0,0,0,291.4,315.3a32.93,32.93,0,0,0-7.83,14.7A18.65,18.65,0,0,1,265.14,345.56Z" transform="translate(-35.74 -52.48)"/><path class="cls-6" d="M262.07,433.5h-.73a34.66,34.66,0,0,1,0-69.31h.73a34.66,34.66,0,1,1,1.23,69.31h-1.23Z" transform="translate(-35.74 -52.48)"/><path class="cls-7" d="M487.31,538.69h-450a1.45,1.45,0,1,1-.24-2.89H487.31a1.45,1.45,0,1,1,.24,2.89Z" transform="translate(-35.74 -52.48)"/><path class="cls-7" d="M793.13,538.69H552.94a1.45,1.45,0,1,1-.24-2.89H793.13a1.45,1.45,0,0,1,.24,2.89Z" transform="translate(-35.74 -52.48)"/><ellipse class="cls-1" cx="642.25" cy="486.44" rx="31.17" ry="9.78" transform="translate(-45.34 -39.54) rotate(-1.15)"/><path class="cls-8" d="M347.18,123.38H309.55a7.23,7.23,0,0,1-7.23-7.23h0V78.52a7.23,7.23,0,0,1,7.23-7.23h37.63a7.23,7.23,0,0,1,7.23,7.23h0v37.63a7.23,7.23,0,0,1-7.23,7.23Zm-37.63-49.2a4.36,4.36,0,0,0-4.34,4.34v37.63a4.36,4.36,0,0,0,4.34,4.34h37.63a4.36,4.36,0,0,0,4.34-4.34V78.52a4.36,4.36,0,0,0-4.34-4.34Z" transform="translate(-35.74 -52.48)"/><path class="cls-8" d="M324,104.57H286.4a7.25,7.25,0,0,1-7.23-7.24V59.71a7.23,7.23,0,0,1,7.23-7.23H324a7.25,7.25,0,0,1,7.24,7.23V97.33A7.24,7.24,0,0,1,324,104.57Zm-37.6-49.2a4.34,4.34,0,0,0-4.34,4.34V97.33a4.35,4.35,0,0,0,4.34,4.35H324a4.37,4.37,0,0,0,4.35-4.35V59.71A4.35,4.35,0,0,0,324,55.37Z" transform="translate(-35.74 -52.48)"/><circle class="cls-8" cx="464.91" cy="265.06" r="9.36"/><circle class="cls-8" cx="88.67" cy="231.77" r="9.36"/><circle class="cls-8" cx="719.6" cy="312.81" r="9.36"/><text class="cls-9" transform="translate(400.87 254.64)">500</text></svg>