<svg id="Layer_1" data-name="Layer 1" xmlns="http://www.w3.org/2000/svg" viewBox="0 0 841.89 595.28"><defs><style>.cls-1{fill:#f6b6b9;}.cls-2{fill:#fff;}.cls-3{fill:#e7e6e6;}.cls-4{fill:#ed6969;}.cls-5{fill:#6f8dc7;}.cls-6{fill:#f2f2f2;}.cls-7{fill:#cdcccc;}.cls-8{fill:#d29172;}.cls-9{fill:#302f42;}.cls-10{fill:#c1846c;}.cls-11{fill:#7291cb;}.cls-12{fill:#403e56;}.cls-13{fill:#85a1d4;}</style></defs><circle class="cls-1" cx="415.32" cy="294.67" r="263.02"/><path class="cls-2" d="M460,294.68l83.75-83.75a23.68,23.68,0,0,0,0-33.49l-11.17-11.17a23.69,23.69,0,0,0-33.5,0L415.33,250l-83.75-83.76a23.66,23.66,0,0,0-33.49,0l-11.18,11.16a23.67,23.67,0,0,0,0,33.5l83.76,83.76-83.75,83.74a23.69,23.69,0,0,0,0,33.5l11.17,11.17a23.68,23.68,0,0,0,33.49,0l83.75-83.75,83.74,83.75a23.69,23.69,0,0,0,33.5,0l11.17-11.17a23.69,23.69,0,0,0,0-33.5Z"/><path class="cls-3" d="M162.12,213.26a121.69,121.69,0,0,1,10.1-38.52q2.28-5.09,5-10A.75.75,0,0,0,176,164a123.76,123.76,0,0,0-13.77,38q-1,5.58-1.55,11.25C160.54,214.21,162,214.2,162.12,213.26Z"/><circle class="cls-4" cx="180.84" cy="157.75" r="9.41"/><path class="cls-3" d="M163.08,213.51a79.33,79.33,0,0,1,6.55-25c1-2.2,2.07-4.36,3.26-6.46a.49.49,0,0,0-.2-.66.48.48,0,0,0-.63.17,80.36,80.36,0,0,0-8.94,24.64c-.44,2.42-.78,4.85-1,7.3C162.06,214.13,163,214.12,163.08,213.51Z"/><circle class="cls-5" cx="175.22" cy="177.5" r="6.11"/><path class="cls-3" d="M161.86,212.93a79.34,79.34,0,0,1-10.2-23.73q-.87-3.51-1.41-7.1a.47.47,0,0,0-.55-.39.48.48,0,0,0-.4.52,80.18,80.18,0,0,0,8.11,24.92q1.69,3.27,3.69,6.38C161.44,214.05,162.2,213.45,161.86,212.93Z"/><circle class="cls-5" cx="149.29" cy="177.07" r="6.11"/><path class="cls-6" d="M143.11,218.34v-12a4.51,4.51,0,0,1,4.5-4.5h28a4.49,4.49,0,0,1,4.5,4.5v12a4.51,4.51,0,0,1-4.5,4.5h-28A4.52,4.52,0,0,1,143.11,218.34Z"/><path class="cls-6" d="M174.61,141.84h-12a4.52,4.52,0,0,1-4.5-4.5v-49a4.51,4.51,0,0,1,4.5-4.5h12a4.49,4.49,0,0,1,4.5,4.5v49A4.51,4.51,0,0,1,174.61,141.84Z"/><rect class="cls-7" x="158.61" y="93.34" width="20" height="4"/><rect class="cls-7" x="158.61" y="124.34" width="20" height="4"/><path class="cls-6" d="M204.61,141.84h-12a4.52,4.52,0,0,1-4.5-4.5v-49a4.51,4.51,0,0,1,4.5-4.5h12a4.49,4.49,0,0,1,4.5,4.5v49A4.51,4.51,0,0,1,204.61,141.84Z"/><rect class="cls-7" x="188.61" y="93.34" width="20" height="4"/><rect class="cls-7" x="188.61" y="124.34" width="20" height="4"/><path class="cls-6" d="M234.61,141.84h-12a4.52,4.52,0,0,1-4.5-4.5v-49a4.51,4.51,0,0,1,4.5-4.5h12a4.49,4.49,0,0,1,4.5,4.5v49A4.51,4.51,0,0,1,234.61,141.84Z"/><rect class="cls-7" x="218.61" y="93.34" width="20" height="4"/><rect class="cls-7" x="218.61" y="124.34" width="20" height="4"/><path class="cls-6" d="M250.61,222.84h-12a4.52,4.52,0,0,1-4.5-4.5v-49a4.51,4.51,0,0,1,4.5-4.5h12a4.49,4.49,0,0,1,4.5,4.5v49A4.51,4.51,0,0,1,250.61,222.84Z"/><rect class="cls-7" x="234.61" y="174.34" width="20" height="4"/><rect class="cls-7" x="234.61" y="205.34" width="20" height="4"/><path class="cls-6" d="M280.61,222.84h-12a4.52,4.52,0,0,1-4.5-4.5v-49a4.51,4.51,0,0,1,4.5-4.5h12a4.49,4.49,0,0,1,4.5,4.5v49A4.51,4.51,0,0,1,280.61,222.84Z"/><rect class="cls-7" x="264.61" y="174.34" width="20" height="4"/><rect class="cls-7" x="264.61" y="205.34" width="20" height="4"/><path class="cls-6" d="M310.61,222.84h-12a4.52,4.52,0,0,1-4.5-4.5v-49a4.51,4.51,0,0,1,4.5-4.5h12a4.49,4.49,0,0,1,4.5,4.5v49A4.51,4.51,0,0,1,310.61,222.84Z"/><rect class="cls-7" x="294.61" y="174.34" width="20" height="4"/><rect class="cls-7" x="294.61" y="205.34" width="20" height="4"/><path class="cls-6" d="M171.61,303.84h-12a4.52,4.52,0,0,1-4.5-4.5v-49a4.51,4.51,0,0,1,4.5-4.5h12a4.49,4.49,0,0,1,4.5,4.5v49A4.51,4.51,0,0,1,171.61,303.84Z"/><rect class="cls-7" x="155.61" y="255.34" width="20" height="4"/><rect class="cls-7" x="155.61" y="286.34" width="20" height="4"/><path class="cls-6" d="M201.61,303.84h-12a4.52,4.52,0,0,1-4.5-4.5v-49a4.51,4.51,0,0,1,4.5-4.5h12a4.49,4.49,0,0,1,4.5,4.5v49A4.51,4.51,0,0,1,201.61,303.84Z"/><rect class="cls-7" x="185.61" y="255.34" width="20" height="4"/><rect class="cls-7" x="185.61" y="286.34" width="20" height="4"/><path class="cls-6" d="M231.61,303.84h-12a4.52,4.52,0,0,1-4.5-4.5v-49a4.51,4.51,0,0,1,4.5-4.5h12a4.49,4.49,0,0,1,4.5,4.5v49A4.51,4.51,0,0,1,231.61,303.84Z"/><rect class="cls-7" x="215.61" y="255.34" width="20" height="4"/><rect class="cls-7" x="215.61" y="286.34" width="20" height="4"/><path class="cls-6" d="M264.61,141.84h-12a4.52,4.52,0,0,1-4.5-4.5v-49a4.51,4.51,0,0,1,4.5-4.5h12a4.49,4.49,0,0,1,4.5,4.5v49A4.51,4.51,0,0,1,264.61,141.84Z"/><rect class="cls-7" x="248.61" y="93.34" width="20" height="4"/><rect class="cls-7" x="248.61" y="124.34" width="20" height="4"/><path class="cls-6" d="M294.61,141.84h-12a4.52,4.52,0,0,1-4.5-4.5v-49a4.51,4.51,0,0,1,4.5-4.5h12a4.49,4.49,0,0,1,4.5,4.5v49A4.51,4.51,0,0,1,294.61,141.84Z"/><rect class="cls-7" x="278.61" y="93.34" width="20" height="4"/><rect class="cls-7" x="278.61" y="124.34" width="20" height="4"/><path class="cls-6" d="M324.61,141.84h-12a4.52,4.52,0,0,1-4.5-4.5v-49a4.51,4.51,0,0,1,4.5-4.5h12a4.49,4.49,0,0,1,4.5,4.5v49A4.51,4.51,0,0,1,324.61,141.84Z"/><rect class="cls-7" x="308.61" y="93.34" width="20" height="4"/><rect class="cls-7" x="308.61" y="124.34" width="20" height="4"/><path class="cls-6" d="M354.61,141.84h-12a4.52,4.52,0,0,1-4.5-4.5v-49a4.51,4.51,0,0,1,4.5-4.5h12a4.49,4.49,0,0,1,4.5,4.5v49A4.51,4.51,0,0,1,354.61,141.84Z"/><rect class="cls-7" x="338.61" y="93.34" width="20" height="4"/><rect class="cls-7" x="338.61" y="124.34" width="20" height="4"/><path class="cls-7" d="M399.55,143.34h-285a1,1,0,1,1,0-2h285a1,1,0,0,1,0,2Z"/><path class="cls-7" d="M399.55,224.34h-285a1,1,0,1,1,0-2h285a1,1,0,0,1,0,2Z"/><path class="cls-7" d="M399.55,305.34h-285a1,1,0,0,1,0-2h285a1,1,0,0,1,0,2Z"/><path class="cls-7" d="M382.68,462.32c0-7.73-29.11-14-65-14s-65,6.27-65,14c0,4.95,12,9.3,30,11.79v76.71a6.5,6.5,0,0,0,13,0V475.49c6.87.54,14.27.83,22,.83s15.12-.29,22-.83v75.33a6.5,6.5,0,0,0,13,0V474.11C370.71,471.62,382.68,467.27,382.68,462.32Z"/><polygon class="cls-8" points="370.17 544.74 382.43 544.74 388.26 497.45 370.17 497.45 370.17 544.74"/><path class="cls-9" d="M406.07,556.12H367.54V541.24h23.65a14.88,14.88,0,0,1,14.88,14.88Z"/><polygon class="cls-8" points="389.31 537.9 401 534.23 392.41 487.36 375.15 492.78 389.31 537.9"/><path class="cls-9" d="M427,538l-36.76,11.54h0l-4.46-14.21h0l22.56-7.08A14.89,14.89,0,0,1,427,538Z"/><path class="cls-9" d="M381.1,516.13l-22.42-58.87c-5,1.18-47.23,10.52-61.36-4.53-4.84-5.15-5.79-12.62-2.81-22.2l8.25-10.37.26,0c3.11.16,76.43,4.27,81.46,26.39,4.23,18.64,12,53.4,14.24,63.61a4.5,4.5,0,0,1-2.81,5.18l-9,3.39a4.64,4.64,0,0,1-1.57.28A4.52,4.52,0,0,1,381.1,516.13Z"/><path class="cls-9" d="M368.1,523.13l-22.42-58.87c-5,1.18-47.23,10.52-61.36-4.53-4.84-5.15-5.79-12.62-2.81-22.2l8.25-10.37.26,0c3.11.16,76.43,4.27,81.46,26.39,4.23,18.64,12,53.4,14.24,63.61a4.5,4.5,0,0,1-2.81,5.18l-9,3.39a4.64,4.64,0,0,1-1.57.28A4.52,4.52,0,0,1,368.1,523.13Z"/><path class="cls-10" d="M398.41,382a11.33,11.33,0,0,0-.88,1.4l-49.32,5.2-7.1-9.73L325,387.67,339,411.29l60.49-15.42a10.49,10.49,0,1,0-.19-14.84,11.26,11.26,0,0,0-.85,1Z"/><path class="cls-11" d="M281.19,440.64a4.51,4.51,0,0,1-1.81-4.35c2.78-18.35-.42-44.62-3.6-63.44a24.81,24.81,0,0,1,27.56-28.76,79.64,79.64,0,0,1,9.91,2h0a24.58,24.58,0,0,1,18.58,24.46c-.47,18.16,3.22,40.81,4.82,49.71a4.55,4.55,0,0,1-.83,3.51,4.4,4.4,0,0,1-3.1,1.75c-17.8,1.81-37,10.5-46.87,15.51a4.44,4.44,0,0,1-4.66-.35Z"/><path class="cls-11" d="M329.26,393.32a4.46,4.46,0,0,1-2.47-2.39L316.86,368A11.5,11.5,0,0,1,338,358.85l9.93,22.94a4.52,4.52,0,0,1-2.34,5.92l-12.85,5.56a4.44,4.44,0,0,1-3.45.05Z"/><path class="cls-8" d="M351.41,380a11.33,11.33,0,0,0-.88,1.4l-49.32,5.2-7.1-9.73L278,385.67,292,409.29l60.49-15.42a10.49,10.49,0,1,0-.19-14.84c-.3.31-.58.64-.85,1Z"/><path class="cls-11" d="M282.26,394.32a4.46,4.46,0,0,1-2.47-2.39L269.86,369a11.5,11.5,0,0,1,21.1-9.15v0l9.93,22.94a4.52,4.52,0,0,1-2.34,5.92l-12.85,5.56a4.44,4.44,0,0,1-3.45.05Z"/><circle class="cls-8" cx="301.51" cy="311.73" r="24.56"/><path class="cls-9" d="M284,328.58a2.14,2.14,0,0,1,1.33-2.71,2.38,2.38,0,0,1,.53-.11,5,5,0,0,1,3.47,1.72,14.16,14.16,0,0,0,3.08,2.64,2.64,2.64,0,0,0,3.47-.63c.64-1.07.2-2.51-.18-3.76A36.73,36.73,0,0,1,294,316c-.11-3.7.41-7.56,2.46-10.44,2.64-3.73,7.37-5.14,11.84-5s8.88,1.48,13.31,2.36c1.53.3,3.33.45,4.35-.73s.69-3.3.23-5c-1.2-4.41-2.48-9-5.27-12.55a18.89,18.89,0,0,0-12.06-6.79,28.94,28.94,0,0,0-13.46,1.53,36.09,36.09,0,0,0-17.68,12.32,29.19,29.19,0,0,0-5.58,21.6A26.63,26.63,0,0,0,282,330.06Z"/><path class="cls-12" d="M190.17,387.71a122.3,122.3,0,0,1,10.1-38.52q2.28-5.08,5-10a.74.74,0,0,0-1.28-.75,123.82,123.82,0,0,0-13.77,38q-1,5.58-1.55,11.24C188.6,388.66,190.08,388.66,190.17,387.71Z"/><circle class="cls-13" cx="208.89" cy="332.2" r="9.41"/><path class="cls-12" d="M191.14,388a79.13,79.13,0,0,1,6.55-25c1-2.2,2.07-4.35,3.25-6.46a.48.48,0,0,0-.19-.65.48.48,0,0,0-.64.17,80.16,80.16,0,0,0-8.93,24.64c-.45,2.41-.78,4.84-1,7.29C190.11,388.58,191.08,388.58,191.14,388Z"/><circle class="cls-4" cx="203.28" cy="351.95" r="6.11"/><path class="cls-12" d="M189.92,387.39a78.89,78.89,0,0,1-10.2-23.74c-.58-2.34-1.05-4.71-1.41-7.09a.49.49,0,0,0-.56-.4.48.48,0,0,0-.4.52,80.08,80.08,0,0,0,8.12,24.93q1.69,3.27,3.69,6.37c.33.52,1.09-.08.76-.59Z"/><circle class="cls-4" cx="177.34" cy="351.52" r="6.11" transform="translate(-33.78 19.19) rotate(-5.65)"/><path class="cls-7" d="M171.17,392.79v-12a4.5,4.5,0,0,1,4.5-4.5h28a4.51,4.51,0,0,1,4.5,4.5v12a4.51,4.51,0,0,1-4.5,4.5h-28A4.5,4.5,0,0,1,171.17,392.79Z"/><path class="cls-7" d="M343.18,389.32h79a3.5,3.5,0,0,1,3.5,3.5h0a3.5,3.5,0,0,1-3.5,3.5h-79a3.5,3.5,0,0,1-3.5-3.5h0A3.49,3.49,0,0,1,343.18,389.32Z"/><path class="cls-7" d="M475.18,396.32h-89a6.51,6.51,0,0,1-6.5-6.5v-49a6.5,6.5,0,0,1,6.5-6.5h89a6.51,6.51,0,0,1,6.5,6.5v49A6.52,6.52,0,0,1,475.18,396.32Z"/><circle class="cls-4" cx="430.68" cy="365.32" r="6"/><path class="cls-7" d="M701.68,462.32c0-7.73-29.11-14-65-14s-65,6.27-65,14c0,4.95,12,9.3,30,11.79v76.71a6.5,6.5,0,0,0,13,0V475.49c6.87.54,14.27.83,22,.83s15.12-.29,22-.83v75.33a6.5,6.5,0,0,0,13,0V474.11C689.71,471.62,701.68,467.27,701.68,462.32Z"/><circle class="cls-9" cx="643.86" cy="306.18" r="28"/><polygon class="cls-8" points="574.18 545.74 561.92 545.74 556.09 498.45 574.18 498.45 574.18 545.74"/><path class="cls-9" d="M553.17,542.24h23.64v14.89H538.28a14.88,14.88,0,0,1,14.89-14.89Z"/><polygon class="cls-8" points="555.04 538.9 543.35 535.23 551.94 488.36 569.2 493.78 555.04 538.9"/><path class="cls-9" d="M536,529.26l22.56,7.08h0l-4.46,14.21h0L517.38,539h0A14.89,14.89,0,0,1,536,529.26Z"/><path class="cls-9" d="M559,520a4.68,4.68,0,0,1-1.57-.28l-9-3.39a4.5,4.5,0,0,1-2.81-5.18c2.27-10.21,10-45,14.25-63.61,5-22.12,78.34-26.23,81.46-26.39l.25,0,8.25,10.37c3,9.58,2,17.05-2.81,22.2-14.13,15-56.32,5.71-61.36,4.53l-22.42,58.87A4.52,4.52,0,0,1,559,520Z"/><path class="cls-9" d="M572,527a4.68,4.68,0,0,1-1.57-.28l-9-3.39a4.5,4.5,0,0,1-2.81-5.18c2.27-10.21,10-45,14.25-63.61,5-22.12,78.34-26.23,81.46-26.39l.25,0,8.25,10.37c3,9.58,2,17.05-2.81,22.2-14.13,15-56.32,5.71-61.36,4.53l-22.42,58.87A4.52,4.52,0,0,1,572,527Z"/><path class="cls-10" d="M545.94,383a9.68,9.68,0,0,1,.88,1.4l49.32,5.2,7.1-9.73,16.09,8.79-13.94,23.62L544.9,396.87a10.49,10.49,0,1,1,.19-14.84,11.26,11.26,0,0,1,.85,1Z"/><path class="cls-11" d="M660.55,442.49a4.46,4.46,0,0,1-2-.5c-9.86-5-29.06-13.7-46.87-15.51a4.42,4.42,0,0,1-3.1-1.75,4.55,4.55,0,0,1-.83-3.51c1.61-8.9,5.29-31.55,4.82-49.71a24.59,24.59,0,0,1,18.58-24.46h0a79.64,79.64,0,0,1,9.91-2,24.78,24.78,0,0,1,27.56,28.76c-3.17,18.82-6.38,45.09-3.59,63.44a4.54,4.54,0,0,1-1.82,4.35A4.45,4.45,0,0,1,660.55,442.49Z"/><path class="cls-11" d="M613.43,394.64a4.63,4.63,0,0,1-1.79-.37l-12.84-5.56a4.51,4.51,0,0,1-2.35-5.92l9.94-22.94A11.5,11.5,0,1,1,627.5,369h0l-9.93,22.95a4.51,4.51,0,0,1-4.13,2.71Z"/><circle class="cls-8" cx="642.84" cy="312.73" r="24.56"/><path class="cls-9" d="M617.84,300.66a88.67,88.67,0,0,0,38.32,12.63l-4-4.84a30,30,0,0,0,9.17,1.82c3.13,0,6.41-1.26,8.19-3.83a9.36,9.36,0,0,0,.63-8.63,17.7,17.7,0,0,0-5.57-7,33.17,33.17,0,0,0-30.85-5.52,19.93,19.93,0,0,0-9.21,5.91c-2.33,2.88-6.81,5.44-5.62,8.94Z"/><path class="cls-9" d="M647,280.84a75.44,75.44,0,0,0-27.46-17.76c-6.64-2.46-13.87-4-20.81-2.58s-13.5,6.2-15.44,13c-1.58,5.57,0,11.57,2.51,16.81s5.74,10.1,7.72,15.54a35.45,35.45,0,0,1-35.68,47.56c6.81.92,13.1,4.12,19.77,5.83s14.53,1.59,19.48-3.19c5.24-5.05,5.35-13.26,5.09-20.54L601,303.06c-.19-5.51-.35-11.2,1.64-16.35s6.71-9.66,12.23-9.61c4.18,0,7.89,2.57,11.24,5.07s6.91,5.16,11.07,5.53,8.92-2.71,8.61-6.88"/><polygon class="cls-3" points="532.8 364.92 589.36 366.26 597.55 426.71 545.32 427.89 532.8 364.92"/><path class="cls-8" d="M592.94,381a10.26,10.26,0,0,1,.88,1.4l49.32,5.2,7.1-9.73,16.09,8.79-13.94,23.62L591.9,394.87a10.49,10.49,0,1,1,.19-14.84,11.26,11.26,0,0,1,.85,1Z"/><path class="cls-11" d="M660.43,395.64a4.63,4.63,0,0,1-1.79-.37l-12.84-5.56a4.51,4.51,0,0,1-2.35-5.92l9.94-22.94A11.5,11.5,0,1,1,674.5,370h0l-9.93,22.95a4.51,4.51,0,0,1-4.13,2.71Z"/><path class="cls-12" d="M544.18,395.32h-398a6.5,6.5,0,0,0,0,13h11.5v141.5a6.5,6.5,0,0,0,13,0v-129l72.87,132.08a6.5,6.5,0,0,0,11.26-6.5L178.63,408.32h348v.08l-76.13,138a6.5,6.5,0,0,0,11.25,6.5h0l64.88-117.58V549.82a6.5,6.5,0,0,0,13,0V411.75l1.89-3.43h2.61a6.5,6.5,0,0,0,0-13Z"/><path class="cls-12" d="M790.09,557.78H51.8a1.19,1.19,0,0,1,0-2.38H790.09a1.19,1.19,0,1,1,0,2.38Z"/></svg>